{
  "accessors": [
    {
      "bufferView": 2,
      "componentType": 5126,
      "count": 13681,
      "max": [
        0.41501033306121826,
        0.4061281383037567,
        0.3735894560813904
      ],
      "min": [
        -0.41501033306121826,
        -0.4061281383037567,
        -0.373589426279068
      ],
      "type": "VEC3"
    },
    {
      "bufferView": 2,
      "byteOffset": 164172,
      "componentType": 5126,
      "count": 13681,
      "max": [
        0.9999730587005615,
        0.9999057054519653,
        0.9998493790626526
      ],
      "min": [
        -0.9999507665634155,
        -0.9999834299087524,
        -0.9976992607116699
      ],
      "type": "VEC3"
    },
    {
      "bufferView": 1,
      "componentType": 5126,
      "count": 13681,
      "max": [
        0.9998447895050049,
        0.9834425449371338
      ],
      "min": [
        4.132193134864792e-05,
        0.00011043514678021893
      ],
      "type": "VEC2"
    },
    {
      "bufferView": 1,
      "byteOffset": 109448,
      "componentType": 5126,
      "count": 13681,
      "max": [
        0.9998447895050049,
        0.9834425449371338
      ],
      "min": [
        4.132193134864792e-05,
        0.00011043514678021893
      ],
      "type": "VEC2"
    },
    {
      "bufferView": 1,
      "byteOffset": 218896,
      "componentType": 5126,
      "count": 13681,
      "max": [
        0.9998447895050049,
        0.9834425449371338
      ],
      "min": [
        4.132193134864792e-05,
        0.00011043514678021893
      ],
      "type": "VEC2"
    },
    {
      "bufferView": 0,
      "componentType": 5125,
      "count": 75000,
      "type": "SCALAR"
    }
  ],
  "asset": {
    "extras": {
      "author": "Aupuma (https://sketchfab.com/aupuma)",
      "license": "CC-BY-NC-SA-4.0 (http://creativecommons.org/licenses/by-nc-sa/4.0/)",
      "source": "https://sketchfab.com/3d-models/red-angry-bird-plush-4d2516c56d11476d98f61011d5f370c3",
      "title": "Red Angry Bird Plush"
    },
    "generator": "Sketchfab-12.67.0",
    "version": "2.0"
  },
  "bufferViews": [
    {
      "buffer": 0,
      "byteLength": 300000,
      "name": "floatBufferViews",
      "target": 34963
    },
    {
      "buffer": 0,
      "byteLength": 328344,
      "byteOffset": 300000,
      "byteStride": 8,
      "name": "floatBufferViews",
      "target": 34962
    },
    {
      "buffer": 0,
      "byteLength": 328344,
      "byteOffset": 628344,
      "byteStride": 12,
      "name": "floatBufferViews",
      "target": 34962
    }
  ],
  "buffers": [
    {
      "byteLength": 956688,
      "uri": "scene.bin"
    }
  ],
  "extensionsUsed": [
    "KHR_materials_unlit"
  ],
  "images": [
    {
      "uri": "textures/material_0_baseColor.jpeg"
    }
  ],
  "materials": [
    {
      "emissiveFactor": [
        0.7467212666216734,
        0.7467212666216734,
        0.7467212666216734
      ],
      "emissiveTexture": {
        "index": 0
      },
      "extensions": {
        "KHR_materials_unlit": {}
      },
      "name": "material_0",
      "pbrMetallicRoughness": {
        "baseColorTexture": {
          "index": 0
        },
        "metallicFactor": 0.0
      }
    }
  ],
  "meshes": [
    {
      "name": "Object_0",
      "primitives": [
        {
          "attributes": {
            "NORMAL": 1,
            "POSITION": 0,
            "TEXCOORD_0": 2,
            "TEXCOORD_1": 3,
            "TEXCOORD_2": 4
          },
          "indices": 5,
          "material": 0,
          "mode": 4
        }
      ]
    }
  ],
  "nodes": [
    {
      "children": [
        1
      ],
      "matrix": [
        0.1969536542892456,
        0.0,
        0.0,
        0.0,
        0.0,
        4.373249635519674e-17,
        -0.1969536542892456,
        0.0,
        0.0,
        0.1969536542892456,
        4.373249635519674e-17,
        0.0,
        0.0,
        0.0,
        0.0,
        1.0
      ],
      "name": "Sketchfab_model"
    },
    {
      "children": [
        2
      ],
      "name": "root"
    },
    {
      "children": [
        3
      ],
      "matrix": [
        1.0,
        0.0,
        0.0,
        0.0,
        0.0,
        2.220446049250313e-16,
        1.0,
        0.0,
        0.0,
        -1.0,
        2.220446049250313e-16,
        0.0,
        0.0,
        0.0,
        0.0,
        1.0
      ],
      "name": "GLTF_SceneRootNode"
    },
    {
      "children": [
        4
      ],
      "name": "_0"
    },
    {
      "mesh": 0,
      "name": "Object_4"
    }
  ],
  "samplers": [
    {
      "magFilter": 9729,
      "minFilter": 9987,
      "wrapS": 10497,
      "wrapT": 10497
    }
  ],
  "scene": 0,
  "scenes": [
    {
      "name": "Sketchfab_Scene",
      "nodes": [
        0
      ]
    }
  ],
  "textures": [
    {
      "sampler": 0,
      "source": 0
    }
  ]
}
